<svg width="24" height="24" viewBox="0 0 24 24" fill="none" xmlns="http://www.w3.org/2000/svg">
<g clip-path="url(#clip0_197_136)">
<path d="M3.25 20.75H5.03125L17.25 8.53125L15.4687 6.75L3.25 18.9687V20.75ZM2 23.25C1.64583 23.25 1.34917 23.13 1.11 22.89C0.870833 22.65 0.750833 22.3533 0.75 22V18.9687C0.75 18.6354 0.8125 18.3175 0.9375 18.015C1.0625 17.7125 1.23958 17.4471 1.46875 17.2187L17.25 1.46875C17.5 1.23958 17.7762 1.0625 18.0787 0.9375C18.3812 0.8125 18.6987 0.75 19.0312 0.75C19.3637 0.75 19.6867 0.8125 20 0.9375C20.3133 1.0625 20.5842 1.25 20.8125 1.5L22.5312 3.25C22.7812 3.47917 22.9633 3.75 23.0775 4.0625C23.1917 4.375 23.2492 4.6875 23.25 5C23.25 5.33333 23.1925 5.65125 23.0775 5.95375C22.9625 6.25625 22.7804 6.53208 22.5312 6.78125L6.78125 22.5312C6.55208 22.7604 6.28625 22.9375 5.98375 23.0625C5.68125 23.1875 5.36375 23.25 5.03125 23.25H2ZM16.3437 7.65625L15.4687 6.75L17.25 8.53125L16.3437 7.65625Z" fill="#313131"/>
</g>
<defs>
<clipPath id="clip0_197_136">
<rect width="24" height="24" fill="white"/>
</clipPath>
</defs>
</svg>
