<svg width="24" height="24" viewBox="0 0 24 24" fill="none" xmlns="http://www.w3.org/2000/svg">
<g clip-path="url(#clip0_189_80)">
<path d="M12 17.8333C12.3306 17.8333 12.6078 17.7213 12.8318 17.4973C13.0558 17.2733 13.1674 16.9964 13.1667 16.6666V11.9999C13.1667 11.6694 13.0547 11.3925 12.8307 11.1693C12.6067 10.946 12.3298 10.834 12 10.8333C11.6702 10.8325 11.3933 10.9445 11.1693 11.1693C10.9453 11.394 10.8333 11.6709 10.8333 11.9999V16.6666C10.8333 16.9971 10.9453 17.2744 11.1693 17.4984C11.3933 17.7224 11.6702 17.834 12 17.8333ZM12 8.49992C12.3306 8.49992 12.6078 8.38792 12.8318 8.16392C13.0558 7.93992 13.1674 7.66303 13.1667 7.33325C13.1659 7.00347 13.0539 6.72659 12.8307 6.50259C12.6074 6.27859 12.3306 6.16659 12 6.16659C11.6694 6.16659 11.3926 6.27859 11.1693 6.50259C10.9461 6.72659 10.8341 7.00347 10.8333 7.33325C10.8326 7.66303 10.9446 7.94031 11.1693 8.16509C11.3941 8.38986 11.671 8.50147 12 8.49992ZM12 23.6666C10.3861 23.6666 8.86945 23.3601 7.45 22.7473C6.03056 22.1344 4.79583 21.3033 3.74583 20.2541C2.69583 19.2049 1.86478 17.9701 1.25267 16.5499C0.640556 15.1297 0.334111 13.613 0.333334 11.9999C0.332556 10.3868 0.639 8.87014 1.25267 7.44992C1.86633 6.0297 2.69739 4.79497 3.74583 3.74575C4.79428 2.69653 6.029 1.86547 7.45 1.25259C8.871 0.639696 10.3877 0.333252 12 0.333252C13.6123 0.333252 15.129 0.639696 16.55 1.25259C17.971 1.86547 19.2057 2.69653 20.2542 3.74575C21.3026 4.79497 22.1341 6.0297 22.7485 7.44992C23.3629 8.87014 23.669 10.3868 23.6667 11.9999C23.6643 13.613 23.3579 15.1297 22.7473 16.5499C22.1368 17.9701 21.3057 19.2049 20.2542 20.2541C19.2026 21.3033 17.9679 22.1348 16.55 22.7484C15.1321 23.3621 13.6154 23.6681 12 23.6666ZM12 21.3333C14.6056 21.3333 16.8125 20.4291 18.6208 18.6208C20.4292 16.8124 21.3333 14.6055 21.3333 11.9999C21.3333 9.39436 20.4292 7.18742 18.6208 5.37908C16.8125 3.57075 14.6056 2.66659 12 2.66659C9.39444 2.66659 7.1875 3.57075 5.37917 5.37908C3.57083 7.18742 2.66667 9.39436 2.66667 11.9999C2.66667 14.6055 3.57083 16.8124 5.37917 18.6208C7.1875 20.4291 9.39444 21.3333 12 21.3333Z" fill="#313131"/>
</g>
<defs>
<clipPath id="clip0_189_80">
<rect width="24" height="24" fill="white"/>
</clipPath>
</defs>
</svg>
