<svg width="24" height="24" viewBox="0 0 24 24" fill="none" xmlns="http://www.w3.org/2000/svg">
<g clip-path="url(#clip0_200_142)">
<path fill-rule="evenodd" clip-rule="evenodd" d="M12 1.33333C12 1.68696 12.1405 2.02609 12.3905 2.27614C12.6406 2.52619 12.9797 2.66667 13.3333 2.66667H19.448L12.3907 9.724C12.2043 9.91047 12.0773 10.148 12.0259 10.4066C11.9745 10.6652 12.0009 10.9333 12.1018 11.1769C12.2027 11.4205 12.3735 11.6287 12.5927 11.7752C12.8119 11.9217 13.0697 11.9999 13.3333 12H22.6667C23.0203 12 23.3594 11.8595 23.6095 11.6095C23.8595 11.3594 24 11.0203 24 10.6667C24 10.313 23.8595 9.97391 23.6095 9.72386C23.3594 9.47381 23.0203 9.33333 22.6667 9.33333H16.552L23.6093 2.276C23.7957 2.08953 23.9227 1.85198 23.9741 1.59338C24.0255 1.33477 23.9991 1.06673 23.8982 0.823127C23.7973 0.579527 23.6265 0.37131 23.4073 0.224798C23.1881 0.0782855 22.9303 5.62991e-05 22.6667 0H13.3333C12.9797 0 12.6406 0.140476 12.3905 0.390524C12.1405 0.640573 12 0.979711 12 1.33333ZM1.33333 9.33333C0.979711 9.33333 0.640573 9.19286 0.390524 8.94281C0.140476 8.69276 0 8.35362 0 8C0 7.64638 0.140476 7.30724 0.390524 7.05719C0.640573 6.80714 0.979711 6.66667 1.33333 6.66667H8C8.26367 6.66672 8.5214 6.74495 8.74061 6.89146C8.95982 7.03798 9.13068 7.24619 9.23157 7.48979C9.33247 7.73339 9.35887 8.00144 9.30744 8.26004C9.25602 8.51865 9.12908 8.7562 8.94267 8.94267L4.552 13.3333H8C8.35362 13.3333 8.69276 13.4738 8.94281 13.7239C9.19286 13.9739 9.33333 14.313 9.33333 14.6667C9.33333 15.0203 9.19286 15.3594 8.94281 15.6095C8.69276 15.8595 8.35362 16 8 16H1.33333C1.06967 15.9999 0.811935 15.9217 0.592722 15.7752C0.373509 15.6287 0.202656 15.4205 0.101763 15.1769C0.000869383 14.9333 -0.0255347 14.6652 0.0258888 14.4066C0.0773122 14.148 0.204254 13.9105 0.390667 13.724L4.78133 9.33333H1.33333ZM12 18.6667C11.6464 18.6667 11.3072 18.5262 11.0572 18.2761C10.8071 18.0261 10.6667 17.687 10.6667 17.3333C10.6667 16.9797 10.8071 16.6406 11.0572 16.3905C11.3072 16.1405 11.6464 16 12 16H17.3333C17.597 16.0001 17.8547 16.0783 18.0739 16.2248C18.2932 16.3713 18.464 16.5795 18.5649 16.8231C18.6658 17.0667 18.6922 17.3348 18.6408 17.5934C18.5894 17.852 18.4624 18.0895 18.276 18.276L15.2187 21.3333H17.3333C17.687 21.3333 18.0261 21.4738 18.2761 21.7239C18.5262 21.9739 18.6667 22.313 18.6667 22.6667C18.6667 23.0203 18.5262 23.3594 18.2761 23.6095C18.0261 23.8595 17.687 24 17.3333 24H12C11.7363 23.9999 11.4786 23.9217 11.2594 23.7752C11.0402 23.6287 10.8693 23.4205 10.7684 23.1769C10.6675 22.9333 10.6411 22.6652 10.6926 22.4066C10.744 22.148 10.8709 21.9105 11.0573 21.724L14.1147 18.6667H12Z" fill="#696969"/>
</g>
<defs>
<clipPath id="clip0_200_142">
<rect width="24" height="24" fill="white"/>
</clipPath>
</defs>
</svg>
