<svg width="24" height="24" viewBox="0 0 24 24" fill="none" xmlns="http://www.w3.org/2000/svg">
<g clip-path="url(#clip0_269_81)">
<path d="M8.79166 23.6666L8.32499 19.9333C8.07222 19.836 7.83422 19.7194 7.61099 19.5833C7.38777 19.4471 7.16883 19.3013 6.95416 19.1458L3.48333 20.6041L0.274994 15.0624L3.27916 12.7874C3.25972 12.6513 3.24999 12.5203 3.24999 12.3943V11.6068C3.24999 11.48 3.25972 11.3485 3.27916 11.2124L0.274994 8.93742L3.48333 3.39575L6.95416 4.85409C7.16805 4.69853 7.39166 4.5527 7.62499 4.41659C7.85833 4.28047 8.09166 4.16381 8.32499 4.06659L8.79166 0.333252H15.2083L15.675 4.06659C15.9278 4.16381 16.1662 4.28047 16.3902 4.41659C16.6142 4.5527 16.8327 4.69853 17.0458 4.85409L20.5167 3.39575L23.725 8.93742L20.7208 11.2124C20.7403 11.3485 20.75 11.48 20.75 11.6068V12.3931C20.75 12.5199 20.7305 12.6513 20.6917 12.7874L23.6958 15.0624L20.4875 20.6041L17.0458 19.1458C16.8319 19.3013 16.6083 19.4471 16.375 19.5833C16.1417 19.7194 15.9083 19.836 15.675 19.9333L15.2083 23.6666H8.79166ZM10.8333 21.3333H13.1375L13.5458 18.2416C14.1486 18.086 14.7078 17.8578 15.2235 17.5568C15.7392 17.2558 16.2105 16.891 16.6375 16.4624L19.525 17.6583L20.6625 15.6749L18.1542 13.7791C18.2514 13.5069 18.3194 13.2203 18.3583 12.9193C18.3972 12.6183 18.4167 12.3118 18.4167 11.9999C18.4167 11.688 18.3972 11.382 18.3583 11.0818C18.3194 10.7815 18.2514 10.4945 18.1542 10.2208L20.6625 8.32492L19.525 6.34159L16.6375 7.56659C16.2097 7.11936 15.7384 6.74525 15.2235 6.44425C14.7086 6.14325 14.1494 5.91459 13.5458 5.75825L13.1667 2.66659H10.8625L10.4542 5.75825C9.85138 5.91381 9.29255 6.14247 8.77766 6.44425C8.26277 6.74603 7.79105 7.11042 7.36249 7.53742L4.47499 6.34159L3.33749 8.32492L5.84583 10.1916C5.7486 10.4833 5.68055 10.7749 5.64166 11.0666C5.60277 11.3583 5.58333 11.6694 5.58333 11.9999C5.58333 12.311 5.60277 12.6124 5.64166 12.9041C5.68055 13.1958 5.7486 13.4874 5.84583 13.7791L3.33749 15.6749L4.47499 17.6583L7.36249 16.4333C7.79027 16.8805 8.26199 17.255 8.77766 17.5568C9.29333 17.8585 9.85216 18.0868 10.4542 18.2416L10.8333 21.3333ZM12.0583 16.0833C13.1861 16.0833 14.1486 15.6846 14.9458 14.8874C15.743 14.0902 16.1417 13.1277 16.1417 11.9999C16.1417 10.8721 15.743 9.90964 14.9458 9.11242C14.1486 8.3152 13.1861 7.91659 12.0583 7.91659C10.9111 7.91659 9.94355 8.3152 9.15566 9.11242C8.36777 9.90964 7.97422 10.8721 7.97499 11.9999C7.97577 13.1277 8.36972 14.0902 9.15683 14.8874C9.94394 15.6846 10.9111 16.0833 12.0583 16.0833Z" fill="white"/>
</g>
<defs>
<clipPath id="clip0_269_81">
<rect width="24" height="24" fill="white"/>
</clipPath>
</defs>
</svg>
