<svg width="24" height="24" viewBox="0 0 24 24" fill="none" xmlns="http://www.w3.org/2000/svg">
<g clip-path="url(#clip0_197_137)">
<path fill-rule="evenodd" clip-rule="evenodd" d="M7.625 12C7.625 10.8397 8.08594 9.72688 8.90641 8.90641C9.72688 8.08594 10.8397 7.625 12 7.625C13.1603 7.625 14.2731 8.08594 15.0936 8.90641C15.9141 9.72688 16.375 10.8397 16.375 12C16.375 13.1603 15.9141 14.2731 15.0936 15.0936C14.2731 15.9141 13.1603 16.375 12 16.375C10.8397 16.375 9.72688 15.9141 8.90641 15.0936C8.08594 14.2731 7.625 13.1603 7.625 12ZM12 9.375C11.3038 9.375 10.6361 9.65156 10.1438 10.1438C9.65156 10.6361 9.375 11.3038 9.375 12C9.375 12.6962 9.65156 13.3639 10.1438 13.8562C10.6361 14.3484 11.3038 14.625 12 14.625C12.6962 14.625 13.3639 14.3484 13.8562 13.8562C14.3484 13.3639 14.625 12.6962 14.625 12C14.625 11.3038 14.3484 10.6361 13.8562 10.1438C13.3639 9.65156 12.6962 9.375 12 9.375Z" fill="#313131"/>
<path fill-rule="evenodd" clip-rule="evenodd" d="M3.0435 10.4203C2.55467 11.125 2.375 11.6768 2.375 12C2.375 12.3232 2.55467 12.875 3.0435 13.5797C3.51717 14.2598 4.2195 14.9983 5.1085 15.6808C6.89 17.0482 9.33183 18.125 12 18.125C14.6682 18.125 17.11 17.0482 18.8915 15.6808C19.7805 14.9983 20.4828 14.2598 20.9565 13.5797C21.4453 12.875 21.625 12.3232 21.625 12C21.625 11.6768 21.4453 11.125 20.9565 10.4203C20.4828 9.74017 19.7805 9.00167 18.8915 8.31917C17.11 6.95183 14.6682 5.875 12 5.875C9.33183 5.875 6.89 6.95183 5.1085 8.31917C4.2195 9.00167 3.51717 9.74017 3.0435 10.4203ZM4.04217 6.93083C6.06167 5.3815 8.86867 4.125 12 4.125C15.1313 4.125 17.9383 5.3815 19.9567 6.93083C20.9682 7.70667 21.8035 8.57233 22.3938 9.42283C22.9678 10.25 23.375 11.1565 23.375 12C23.375 12.8435 22.9667 13.75 22.3938 14.5772C21.8035 15.4277 20.9682 16.2922 19.9578 17.0692C17.9395 18.6185 15.1313 19.875 12 19.875C8.86867 19.875 6.06167 18.6185 4.04333 17.0692C3.03183 16.2933 2.1965 15.4277 1.60617 14.5772C1.03333 13.75 0.625 12.8435 0.625 12C0.625 11.1565 1.03333 10.25 1.60617 9.42283C2.1965 8.57233 3.03183 7.70783 4.04217 6.93083Z" fill="#313131"/>
</g>
<defs>
<clipPath id="clip0_197_137">
<rect width="24" height="24" fill="white"/>
</clipPath>
</defs>
</svg>
