<svg width="24" height="24" viewBox="0 0 24 24" fill="none" xmlns="http://www.w3.org/2000/svg">
<g clip-path="url(#clip0_196_135)">
<path d="M18.3933 5.64148L15.08 2.32814C14.9716 2.21879 14.8425 2.132 14.7004 2.07277C14.5582 2.01354 14.4057 1.98304 14.2517 1.98304C14.0977 1.98304 13.9452 2.01354 13.803 2.07277C13.6608 2.132 13.5318 2.21879 13.4233 2.32814C13.2061 2.54673 13.0841 2.84243 13.0841 3.15064C13.0841 3.45886 13.2061 3.75455 13.4233 3.97314L15.8967 6.44648L6.44668 15.8965L3.97335 13.4231C3.75476 13.2059 3.45907 13.0839 3.15085 13.0839C2.84263 13.0839 2.54694 13.2059 2.32835 13.4231C2.219 13.5316 2.13221 13.6606 2.07298 13.8028C2.01375 13.945 1.98325 14.0975 1.98325 14.2515C1.98325 14.4055 2.01375 14.558 2.07298 14.7001C2.13221 14.8423 2.219 14.9714 2.32835 15.0798L5.60668 18.3581L8.88502 21.6365C8.99307 21.7467 9.12192 21.8344 9.26411 21.8945C9.40629 21.9546 9.55899 21.9858 9.71335 21.9865C9.94508 21.9878 10.172 21.9201 10.3651 21.792C10.5582 21.6639 10.7088 21.4812 10.7976 21.2672C10.8865 21.0532 10.9096 20.8176 10.864 20.5903C10.8184 20.3631 10.7062 20.1547 10.5417 19.9915L8.10335 17.5531L17.5533 8.10314L20.0267 10.5765C20.1355 10.6845 20.2644 10.77 20.4063 10.8282C20.5481 10.8863 20.7 10.916 20.8533 10.9155C21.0066 10.9149 21.1583 10.8842 21.2997 10.825C21.4411 10.7659 21.5695 10.6794 21.6775 10.5706C21.7855 10.4619 21.8711 10.3329 21.9292 10.191C21.9874 10.0492 22.017 9.89731 22.0165 9.74402C22.016 9.59072 21.9852 9.43904 21.9261 9.29762C21.8669 9.1562 21.7805 9.02782 21.6717 8.91981L18.3933 5.64148ZM2.32835 18.3698C2.10866 18.1501 1.8107 18.0267 1.50002 18.0267C1.18933 18.0267 0.89137 18.1501 0.671682 18.3698C0.451994 18.5895 0.328575 18.8875 0.328575 19.1981C0.328575 19.5088 0.451994 19.8068 0.671682 20.0265L3.97335 23.3281C4.08236 23.4363 4.21165 23.5218 4.35379 23.5799C4.49593 23.6379 4.64814 23.6674 4.80168 23.6665C4.95522 23.6674 5.10743 23.6379 5.24957 23.5799C5.39172 23.5218 5.521 23.4363 5.63002 23.3281C5.73937 23.2197 5.82616 23.0907 5.88539 22.9485C5.94462 22.8063 5.97511 22.6538 5.97511 22.4998C5.97511 22.3458 5.94462 22.1933 5.88539 22.0511C5.82616 21.909 5.73937 21.7799 5.63002 21.6715L2.32835 18.3698ZM23.3283 3.97314L20.0267 0.671476C19.807 0.451788 19.509 0.328369 19.1983 0.328369C18.8877 0.328369 18.5897 0.451788 18.37 0.671476C18.1503 0.891164 18.0269 1.18912 18.0269 1.49981C18.0269 1.81049 18.1503 2.10846 18.37 2.32814L21.6717 5.62981C21.7801 5.73916 21.9092 5.82595 22.0513 5.88518C22.1935 5.94441 22.346 5.97491 22.5 5.97491C22.654 5.97491 22.8065 5.94441 22.9487 5.88518C23.0909 5.82595 23.2199 5.73916 23.3283 5.62981C23.4377 5.52135 23.5245 5.39232 23.5837 5.25015C23.643 5.10798 23.6734 4.95549 23.6734 4.80148C23.6734 4.64746 23.643 4.49497 23.5837 4.3528C23.5245 4.21063 23.4377 4.0816 23.3283 3.97314Z" fill="#696969"/>
</g>
<defs>
<clipPath id="clip0_196_135">
<rect width="24" height="24" fill="white"/>
</clipPath>
</defs>
</svg>
